<svg xmlns="http://www.w3.org/2000/svg" width="16" height="16" viewBox="0 0 16 16" fill="none">
  <path d="M4.66659 4.00016V2.00016C4.66659 1.63198 4.96507 1.3335 5.33326 1.3335H13.3333C13.7015 1.3335 13.9999 1.63198 13.9999 2.00016V11.3335C13.9999 11.7017 13.7015 12.0002 13.3333 12.0002H11.3333V13.9996C11.3333 14.3681 11.0333 14.6668 10.6621 14.6668H2.67117C2.30045 14.6668 2.00006 14.3704 2.00006 13.9996L2.00179 4.66741C2.00186 4.2989 2.30182 4.00016 2.67301 4.00016H4.66659ZM3.33501 5.3335L3.33352 13.3335H9.99993V5.3335H3.33501ZM5.99993 4.00016H11.3333V10.6668H12.6666V2.66683H5.99993V4.00016Z" fill="#7D809A"/>
</svg>