<svg xmlns="http://www.w3.org/2000/svg" width="16" height="16" viewBox="0 0 16 16" fill="none">
  <g clip-path="url(#clip0_36_569)">
    <path d="M7.99967 14.6661C4.31767 14.6661 1.33301 11.6814 1.33301 7.99943C1.33301 4.31743 4.31767 1.33277 7.99967 1.33277C9.03478 1.33199 10.0558 1.57261 10.9816 2.03553C11.9075 2.49844 12.7126 3.17088 13.333 3.99943H11.5263C10.7565 3.32061 9.80712 2.87834 8.79215 2.7257C7.77718 2.57306 6.73972 2.71654 5.80427 3.13891C4.86881 3.56128 4.07511 4.24461 3.51839 5.10689C2.96167 5.96917 2.66559 6.97378 2.66567 8.00017C2.66576 9.02656 2.96201 10.0311 3.51887 10.8933C4.07573 11.7555 4.86955 12.4387 5.80508 12.8609C6.7406 13.2831 7.77808 13.4264 8.79303 13.2736C9.80798 13.1208 10.7573 12.6784 11.527 11.9994H13.3337C12.7132 12.8281 11.9079 13.5006 10.982 13.9635C10.056 14.4264 9.03489 14.667 7.99967 14.6661ZM12.6663 10.6661V8.6661H7.33301V7.33277H12.6663V5.33277L15.9997 7.99943L12.6663 10.6661Z" fill="white"/>
  </g>
  <defs>
    <clipPath id="clip0_36_569">
      <rect width="16" height="16" fill="white"/>
    </clipPath>
  </defs>
</svg>