<svg xmlns="http://www.w3.org/2000/svg" width="12" height="12" viewBox="0 0 12 12" fill="none">
<rect width="12" height="12" fill="#7F62C7"/>
<path d="M3.63555 2.7457H8.27947V3.66932H9.60002L9.32328 4.59318H9.08894V8.33055C9.20645 8.33055 9.30186 8.42437 9.30186 8.54031V8.79225H9.34448C9.46222 8.79225 9.55762 8.8863 9.55762 9.00223V9.25417H7.17161V9.00223C7.17161 8.8863 7.26701 8.79225 7.38474 8.79225H7.42737V8.54031C7.42737 8.43949 7.49955 8.35536 7.59563 8.33506L7.59112 6.27285C7.51578 5.44892 6.81322 4.80317 5.95751 4.80317C5.1018 4.80317 4.39923 5.44892 4.3239 6.27285L4.31939 8.33325C4.43307 8.34994 4.5729 8.43633 4.5729 8.54031V8.79225H4.61553C4.73304 8.79225 4.82844 8.8863 4.82844 9.00223V9.25417H2.44265V9.00223C2.44265 8.8863 2.53806 8.79225 2.65556 8.79225H2.69819V8.54031C2.69819 8.42437 2.7936 8.33055 2.91133 8.33055V4.59318H2.67699L2.40002 3.66932H3.63555V2.7457Z" fill="white"/>
</svg>