<svg xmlns="http://www.w3.org/2000/svg" width="24" height="20" viewBox="0 0 24 20" fill="none">
  <path d="M13.6879 5.38413C13.6879 5.38413 12.2714 3.88808 9.47708 2.40085C6.51852 0.825311 3.62002 0.618652 3.62002 0.618652L0.59082 13.2636L2.24938 13.4544L0.59082 19.3803H11.5613V13.3131C11.45 13.3166 10.8548 13.3237 10.2313 13.011C9.5389 12.6648 9.09732 12.1155 9.09732 12.1155C9.69433 10.8261 9.96633 8.34798 13.6879 5.38413ZM6.64393 16.5842C6.52912 16.7821 6.32069 16.8933 6.10697 16.8933C6.00276 16.8933 5.89678 16.8668 5.79964 16.8103C4.41309 16.012 2.47723 15.6799 2.4578 15.6764C2.12044 15.6198 1.89435 15.3019 1.95087 14.9645C2.0074 14.6272 2.32532 14.4011 2.66269 14.4576C2.751 14.4717 4.83347 14.8285 6.41607 15.7399C6.71281 15.9095 6.81527 16.2875 6.64393 16.5842Z" fill="#7D809A"/>
  <path d="M11.5893 18.0518C11.2537 18.0518 10.9781 17.7815 10.9711 17.4442C10.964 17.1033 11.236 16.8207 11.5769 16.8154C11.614 16.8154 13.398 16.7659 15.4116 16.0223C15.7313 15.904 16.088 16.0682 16.2064 16.3879C16.3247 16.7076 16.1605 17.0644 15.8408 17.1828C13.6117 18.0059 11.6829 18.05 11.6016 18.0518C11.5963 18.0518 11.5928 18.0518 11.5893 18.0518Z" fill="#7D809A"/>
  <path d="M22.5775 20H0.61881C0.426283 20 0.242592 19.9099 0.126016 19.7562C0.00944046 19.6026 -0.0294212 19.403 0.0235678 19.2158L1.48607 13.9875L0.548165 13.8798C0.373301 13.8603 0.214328 13.765 0.111883 13.6201C0.0112037 13.4753 -0.0241184 13.2934 0.0165065 13.122L3.0457 0.477086C3.11636 0.182114 3.39014 -0.017477 3.69041 0.00371857C3.81405 0.0125501 6.75317 0.238638 9.79297 1.85657C11.7818 2.91458 13.0924 3.97613 13.7248 4.54311C13.9703 4.32585 14.2264 4.1086 14.4949 3.89488C18.2659 0.890401 22.2842 0.0478766 22.4538 0.0125506C22.6357 -0.0245417 22.8247 0.0213823 22.9678 0.139724C23.1109 0.2563 23.1957 0.432929 23.1957 0.61839V19.3818C23.1957 19.7227 22.9184 20 22.5775 20ZM12.2075 18.7636H21.9593V1.41852C20.6628 1.79651 17.872 2.78564 15.2667 4.86104C11.9797 7.4787 10.5596 10.4655 9.86363 11.9881C10.0261 12.1364 10.2593 12.3184 10.5366 12.4579C10.9852 12.6822 11.4268 12.6981 11.5416 12.6946C11.5575 12.6928 11.5734 12.6928 11.5911 12.6928H11.6105C11.9443 12.6928 12.2163 12.956 12.2287 13.2898C12.2305 13.3516 12.2234 13.4117 12.2093 13.4682V18.7636H12.2075ZM1.43308 18.7636H10.9711V13.8833C10.6867 13.8356 10.3388 13.742 9.98197 13.5636C9.1783 13.1609 8.66431 12.5286 8.64311 12.5021C8.49651 12.3184 8.46472 12.0675 8.56364 11.8538L8.68021 11.5995C9.22776 10.4002 10.3829 7.86552 12.824 5.39447C12.2216 4.86458 11.0082 3.90018 9.21363 2.94461C7.13117 1.83537 5.05753 1.43089 4.12139 1.29488L1.38362 12.7281L2.34802 12.8394C2.52819 12.8606 2.68892 12.9578 2.7896 13.1079C2.89028 13.258 2.9203 13.4453 2.87084 13.6201L1.43308 18.7636Z" fill="#7D809A"/>
</svg>