<svg xmlns="http://www.w3.org/2000/svg" width="17" height="16" viewBox="0 0 17 16" fill="#7D809A">
  <g clip-path="url(#clip0_102_5472)">
    <path d="M8.50056 12.1733L3.79826 14.8055L4.84848 9.51993L0.89209 5.86119L6.24345 5.2267L8.50056 0.333328L10.7576 5.2267L16.109 5.86119L12.1526 9.51993L13.2028 14.8055L8.50056 12.1733ZM8.50056 10.6453L11.3317 12.2301L10.6994 9.0478L13.0814 6.84493L9.8595 6.46289L8.50056 3.51667L7.14159 6.46289L3.91964 6.84493L6.3017 9.0478L5.66938 12.2301L8.50056 10.6453Z"/>
    <path d="M8.50056 10.6453L11.3317 12.2301L10.6994 9.0478L13.0814 6.84493L9.8595 6.46289L8.50056 3.51667L7.14159 6.46289L3.91964 6.84493L6.3017 9.0478L5.66938 12.2301L8.50056 10.6453Z"/>
  </g>
  <defs>
    <clipPath id="clip0_102_5472">
      <rect width="16" height="16" fill="white" transform="translate(0.5)"/>
    </clipPath>
  </defs>
</svg>